<svg width="215.686279" height="220.000000" viewBox="0 0 215.686 220" fill="none" xmlns="http://www.w3.org/2000/svg" xmlns:xlink="http://www.w3.org/1999/xlink">
	<desc>
			Created with Pixso.
	</desc>
	<defs>
		<linearGradient x1="107.843155" y1="43.137253" x2="107.843155" y2="220.000000" id="paint_linear_2_661_0" gradientUnits="userSpaceOnUse">
			<stop stop-color="#00C3B7"/>
			<stop offset="1.000000" stop-color="#005D57"/>
		</linearGradient>
	</defs>
	<mask id="mask_2_661" fill="white">
		<path id="Кнопка настройки" d="M107.843 0C48.283 0 0 49.2488 0 110C0 170.751 48.283 220 107.843 220C167.403 220 215.686 170.751 215.686 110C215.686 49.2488 167.403 0 107.843 0ZM148.823 43.1372L71.1765 43.1372C62.8381 43.1372 56.0784 49.897 56.0784 58.2354C56.0784 66.5737 62.8381 73.3333 71.1765 73.3333L148.823 73.3333C157.162 73.3333 163.922 66.5737 163.922 58.2354C163.922 49.897 157.162 43.1372 148.823 43.1372ZM71.1765 94.9019L148.823 94.9019C157.162 94.9019 163.922 101.662 163.922 110C163.922 118.338 157.162 125.098 148.823 125.098L71.1765 125.098C62.8381 125.098 56.0784 118.338 56.0784 110C56.0784 101.662 62.8381 94.9019 71.1765 94.9019ZM148.823 146.667L71.1765 146.667C62.8381 146.667 56.0784 153.426 56.0784 161.765C56.0784 170.103 62.8381 176.863 71.1765 176.863L148.823 176.863C157.162 176.863 163.922 170.103 163.922 161.765C163.922 153.426 157.162 146.667 148.823 146.667Z" clip-rule="evenodd" fill="" fill-opacity="1.000000" fill-rule="evenodd"/>
	</mask>
	<path id="Кнопка настройки" d="M107.843 0C48.283 0 0 49.2488 0 110C0 170.751 48.283 220 107.843 220C167.403 220 215.686 170.751 215.686 110C215.686 49.2488 167.403 0 107.843 0ZM148.823 43.1372L71.1765 43.1372C62.8381 43.1372 56.0784 49.897 56.0784 58.2354C56.0784 66.5737 62.8381 73.3333 71.1765 73.3333L148.823 73.3333C157.162 73.3333 163.922 66.5737 163.922 58.2354C163.922 49.897 157.162 43.1372 148.823 43.1372ZM71.1765 94.9019L148.823 94.9019C157.162 94.9019 163.922 101.662 163.922 110C163.922 118.338 157.162 125.098 148.823 125.098L71.1765 125.098C62.8381 125.098 56.0784 118.338 56.0784 110C56.0784 101.662 62.8381 94.9019 71.1765 94.9019ZM148.823 146.667L71.1765 146.667C62.8381 146.667 56.0784 153.426 56.0784 161.765C56.0784 170.103 62.8381 176.863 71.1765 176.863L148.823 176.863C157.162 176.863 163.922 170.103 163.922 161.765C163.922 153.426 157.162 146.667 148.823 146.667Z" clip-rule="evenodd" fill="url(#paint_linear_2_661_0)" fill-opacity="1.000000" fill-rule="evenodd" mask="url(#mask_2_661)"/>
	<path id="Кнопка настройки" d="M0 110C0 49.2488 48.283 0 107.843 0C167.403 0 215.686 49.2488 215.686 110C215.686 170.751 167.403 220 107.843 220C48.283 220 0 170.751 0 110ZM107.843 1L107.843 1Q119.438 1.00003 130.495 3.43679Q140.165 5.56783 149.424 9.5625Q157.518 13.0543 164.83 17.7601Q174.84 24.2017 183.386 32.9182Q190.542 40.2179 196.135 48.5653Q202.101 57.4696 206.288 67.5662Q209.853 76.1646 211.905 85.1102Q214.686 97.2361 214.686 110Q214.686 122.764 211.905 134.89Q209.853 143.835 206.288 152.434Q202.099 162.535 196.13 171.442Q190.539 179.786 183.386 187.082Q174.842 195.796 164.836 202.236Q157.521 206.944 149.424 210.438Q140.164 214.433 130.492 216.564Q119.436 219 107.843 219Q96.2458 219 85.1857 216.562Q75.5186 214.431 66.262 210.438Q58.1709 206.947 50.8605 202.243Q40.8483 195.8 32.3005 187.082Q25.1493 179.788 19.5594 171.447Q13.5882 162.537 9.39868 152.434Q5.83343 143.836 3.78164 134.891Q1 122.765 1 110Q1 97.2353 3.78164 85.1087Q5.83343 76.1639 9.39868 67.5662Q13.5861 57.4679 19.5534 48.5622Q25.1455 40.2166 32.3005 32.9182Q40.8462 24.2017 50.8559 17.7601Q58.1683 13.0543 66.262 9.5625Q75.5186 5.56895 85.1857 3.43799Q96.2457 1.00003 107.843 1ZM155.004 43.3163Q152.158 42.1372 148.823 42.1372L71.1765 42.1372Q67.8428 42.1372 64.9973 43.3158Q62.1512 44.4945 59.7935 46.8523Q57.4357 49.21 56.2569 52.0561Q55.0784 54.9017 55.0784 58.2354Q55.0784 61.569 56.2569 64.4146Q57.4357 67.2607 59.7935 69.6184Q62.151 71.9758 64.9968 73.1545Q67.8425 74.3333 71.1765 74.3333L148.823 74.3333Q152.158 74.3333 155.005 73.154Q157.85 71.9753 160.207 69.6184Q162.564 67.2607 163.743 64.4146Q164.922 61.569 164.922 58.2354Q164.922 54.9008 163.743 52.0548Q162.564 49.2094 160.207 46.8523Q157.849 44.495 155.004 43.3163ZM71.1765 43.1372L148.823 43.1372C157.162 43.1372 163.922 49.897 163.922 58.2354C163.922 66.5737 157.162 73.3333 148.823 73.3333L71.1765 73.3333C62.8381 73.3333 56.0784 66.5737 56.0784 58.2354C56.0784 49.897 62.8381 43.1372 71.1765 43.1372ZM148.823 93.9019L71.1765 93.9019Q67.8428 93.9019 64.9973 95.0804Q62.1512 96.2592 59.7935 98.6169Q57.4357 100.975 56.2569 103.821Q55.0784 106.666 55.0784 110Q55.0784 113.334 56.2569 116.179Q57.4357 119.025 59.7935 121.383Q62.1506 123.74 64.9959 124.919Q67.842 126.098 71.1765 126.098L148.823 126.098Q152.158 126.098 155.004 124.919Q157.849 123.74 160.207 121.383Q162.564 119.025 163.743 116.179Q164.922 113.334 164.922 110Q164.922 106.666 163.743 103.821Q162.564 100.975 160.207 98.6169Q157.849 96.2597 155.004 95.0809Q152.158 93.9019 148.823 93.9019ZM148.823 94.9019L71.1765 94.9019C62.8381 94.9019 56.0784 101.662 56.0784 110C56.0784 118.338 62.8381 125.098 71.1765 125.098L148.823 125.098C157.162 125.098 163.922 118.338 163.922 110C163.922 101.662 157.162 94.9019 148.823 94.9019ZM155.004 146.846Q152.158 145.667 148.823 145.667L71.1765 145.667Q67.8417 145.667 64.9954 146.846Q62.1504 148.025 59.7935 150.382Q57.4357 152.739 56.2569 155.585Q55.0784 158.431 55.0784 161.765Q55.0784 165.098 56.2569 167.944Q57.4357 170.79 59.7935 173.148Q62.1506 175.505 64.9959 176.684Q67.842 177.863 71.1765 177.863L148.823 177.863Q152.158 177.863 155.004 176.684Q157.849 175.505 160.207 173.148Q162.564 170.79 163.743 167.944Q164.922 165.098 164.922 161.765Q164.922 158.431 163.743 155.585Q162.564 152.739 160.207 150.382Q157.849 148.024 155.004 146.846ZM71.1765 146.667L148.823 146.667C157.162 146.667 163.922 153.426 163.922 161.765C163.922 170.103 157.162 176.863 148.823 176.863L71.1765 176.863C62.8381 176.863 56.0784 170.103 56.0784 161.765C56.0784 153.426 62.8381 146.667 71.1765 146.667Z" clip-rule="evenodd" fill="#00B3A8" fill-opacity="1.000000" fill-rule="evenodd"/>
</svg>
