<svg width="53.000000" height="51.000000" viewBox="0 0 53 51" fill="none" xmlns="http://www.w3.org/2000/svg" xmlns:xlink="http://www.w3.org/1999/xlink">
	<desc>
			Created with Pixso.
	</desc>
	<defs>
		<linearGradient x1="26.500000" y1="0.000000" x2="26.500000" y2="51.000000" id="paint_linear_6_97_0" gradientUnits="userSpaceOnUse">
			<stop stop-color="#001345"/>
			<stop offset="1.000000" stop-color="#005D57"/>
		</linearGradient>
	</defs>
	<rect id="Поиск" rx="25.000000" width="53.000000" height="51.000000" fill="url(#paint_linear_6_97_0)" fill-opacity="1.000000"/>
	<path id="иконка поиска" d="M41.27 21.87C41.27 27.87 36.63 32.74 30.9 32.74C25.18 32.74 20.53 27.87 20.53 21.87C20.53 15.86 25.18 11 30.9 11C36.63 11 41.27 15.86 41.27 21.87Z" fill="#00FFF0" fill-opacity="1.000000" fill-rule="nonzero"/>
	<linearGradient x1="27.136364" y1="11.000000" x2="27.136364" y2="41.000000" id="paint_linear_6_981_0" gradientUnits="userSpaceOnUse">
		<stop stop-color="#001345"/>
		<stop offset="1.000000" stop-color="#005D57"/>
	</linearGradient>
	<path id="иконка поиска" d="M38.63 21.77C38.63 26.19 35.21 29.78 31 29.78C26.78 29.78 23.36 26.19 23.36 21.77C23.36 17.35 26.78 13.76 31 13.76C35.21 13.76 38.63 17.35 38.63 21.77Z" fill="url(#paint_linear_6_981_0)" fill-opacity="1.000000" fill-rule="evenodd"/>
	<path id="иконка поиска" d="M22.53 29.02C22.93 28.57 23.63 28.55 24.06 28.98C24.46 29.38 24.48 30.03 24.1 30.44L15.24 40.17C14.84 40.62 14.14 40.64 13.71 40.21C13.31 39.81 13.29 39.16 13.68 38.75L22.53 29.02Z" fill="#00FFF0" fill-opacity="1.000000" fill-rule="nonzero"/>
</svg>
