<svg width="50.000000" height="51.000000" viewBox="0 0 50 51" fill="none" xmlns="http://www.w3.org/2000/svg" xmlns:xlink="http://www.w3.org/1999/xlink">
	<desc>
			Created with Pixso.
	</desc>
	<defs>
		<linearGradient x1="24.999996" y1="9.999999" x2="24.999996" y2="51.000000" id="paint_linear_6_101_0" gradientUnits="userSpaceOnUse">
			<stop stop-color="#001345"/>
			<stop offset="1.000000" stop-color="#005D57"/>
		</linearGradient>
	</defs>
	<rect id="бутерброд" x="13.000000" y="22.000000" rx="3.500000" width="25.000000" height="7.000000" fill="#00FFF0" fill-opacity="1.000000"/>
	<mask id="mask_6_101" fill="white">
		<path id="Кнопка настройки" d="M25 51C38.7944 51 50 39.5703 50 25.5C50 11.4297 38.7944 0 25 0C11.2056 0 0 11.4297 0 25.5C0 39.5703 11.2056 51 25 51ZM34.5 10L16.5 10C14.5669 10 13 11.5669 13 13.5C13 15.4331 14.5669 17 16.5 17L34.5 17C36.4331 17 38 15.4331 38 13.5C38 11.5669 36.4331 10 34.5 10ZM16.5 22L34.5 22C36.4331 22 38 23.5669 38 25.5C38 27.4331 36.4331 29 34.5 29L16.5 29C14.5669 29 13 27.4331 13 25.5C13 23.5669 14.5669 22 16.5 22ZM34.5 34L16.5 34C14.5669 34 13 35.5669 13 37.5C13 39.4331 14.5669 41 16.5 41L34.5 41C36.4331 41 38 39.4331 38 37.5C38 35.5669 36.4331 34 34.5 34Z" clip-rule="evenodd" fill="" fill-opacity="1.000000" fill-rule="evenodd"/>
	</mask>
	<path id="Кнопка настройки" d="M25 51C38.7944 51 50 39.5703 50 25.5C50 11.4297 38.7944 0 25 0C11.2056 0 0 11.4297 0 25.5C0 39.5703 11.2056 51 25 51ZM34.5 10L16.5 10C14.5669 10 13 11.5669 13 13.5C13 15.4331 14.5669 17 16.5 17L34.5 17C36.4331 17 38 15.4331 38 13.5C38 11.5669 36.4331 10 34.5 10ZM16.5 22L34.5 22C36.4331 22 38 23.5669 38 25.5C38 27.4331 36.4331 29 34.5 29L16.5 29C14.5669 29 13 27.4331 13 25.5C13 23.5669 14.5669 22 16.5 22ZM34.5 34L16.5 34C14.5669 34 13 35.5669 13 37.5C13 39.4331 14.5669 41 16.5 41L34.5 41C36.4331 41 38 39.4331 38 37.5C38 35.5669 36.4331 34 34.5 34Z" clip-rule="evenodd" fill="url(#paint_linear_6_101_0)" fill-opacity="1.000000" fill-rule="evenodd" mask="url(#mask_6_101)"/>
	<path id="Кнопка настройки" d="M50 25.5C50 39.5703 38.7944 51 25 51C11.2056 51 0 39.5703 0 25.5C0 11.4297 11.2056 0 25 0C38.7944 0 50 11.4297 50 25.5ZM28.3552 49.7621Q26.6947 50 25 50Q23.3053 50 21.6448 49.7621Q20.9039 49.6559 20.1699 49.5024Q19.1668 49.2929 18.1895 48.9977Q16.9077 48.6106 15.6704 48.0762Q14.977 47.7767 14.3054 47.4345Q12.9027 46.7198 11.5952 45.8184Q10.9319 45.3611 10.3018 44.8618Q9.11205 43.9189 8.04102 42.8262Q7.32423 42.0951 6.67303 41.3096Q5.83549 40.2994 5.10645 39.1992Q4.44454 38.2004 3.88519 37.1472Q3.33871 36.1181 2.89014 35.0371Q2.47265 34.0316 2.14661 32.9973Q1.75004 31.7392 1.48877 30.4385Q1.3625 29.8099 1.26885 29.1765Q1 27.3581 1 25.5Q1 23.6419 1.26885 21.8235Q1.3625 21.1901 1.48877 20.5615Q1.75004 19.2608 2.14661 18.0027Q2.47265 16.9684 2.89014 15.9629Q3.33871 14.8819 3.88519 13.8528Q4.44454 12.7996 5.10645 11.8008Q5.83549 10.7006 6.67303 9.69039Q7.32423 8.90492 8.04102 8.17383Q9.11205 7.08109 10.3018 6.1382Q10.9319 5.63891 11.5952 5.18164Q12.9027 4.28024 14.3054 3.5655Q14.977 3.22327 15.6704 2.92383Q16.9077 2.3894 18.1895 2.00227Q19.1668 1.7071 20.1699 1.49756Q20.9039 1.34407 21.6448 1.23792Q23.3053 1 25 1Q26.6947 1 28.3552 1.23792Q29.0961 1.34407 29.8301 1.49756Q30.8332 1.7071 31.8105 2.00227Q33.0923 2.3894 34.3296 2.92383Q35.023 3.22327 35.6946 3.5655Q37.0973 4.28024 38.4048 5.18164Q39.0681 5.63891 39.6982 6.1382Q40.888 7.08109 41.959 8.17383Q42.6758 8.90492 43.327 9.69039Q44.1645 10.7006 44.8936 11.8008Q45.5555 12.7996 46.1148 13.8528Q46.6613 14.8819 47.1099 15.9629Q47.5274 16.9684 47.8534 18.0027Q48.25 19.2608 48.5112 20.5615Q48.6375 21.1901 48.7311 21.8235Q49 23.6419 49 25.5Q49 27.3581 48.7311 29.1765Q48.6375 29.8099 48.5112 30.4385Q48.25 31.7392 47.8534 32.9973Q47.5274 34.0316 47.1099 35.0371Q46.6613 36.1181 46.1148 37.1472Q45.5555 38.2004 44.8936 39.1992Q44.1645 40.2994 43.327 41.3096Q42.6758 42.0951 41.959 42.8262Q40.888 43.9189 39.6982 44.8618Q39.0681 45.3611 38.4048 45.8184Q37.0973 46.7198 35.6946 47.4345Q35.023 47.7767 34.3296 48.0762Q33.0923 48.6106 31.8105 48.9977Q30.8332 49.2929 29.8301 49.5024Q29.0961 49.6559 28.3552 49.7621ZM35.4724 9.10474Q34.9977 9 34.5 9L16.5 9Q16.0023 9 15.5276 9.10474Q15.1297 9.19256 14.748 9.354Q14.3639 9.5166 14.0215 9.74262Q13.6443 9.99172 13.3179 10.3179Q12.9917 10.6443 12.7426 11.0215Q12.5166 11.3639 12.354 11.748Q12.1926 12.1297 12.1047 12.5276Q12 13.0023 12 13.5Q12 13.9977 12.1047 14.4724Q12.1926 14.8703 12.354 15.252Q12.5166 15.6361 12.7426 15.9785Q12.9917 16.3557 13.3179 16.6821Q13.6443 17.0083 14.0215 17.2574Q14.3639 17.4834 14.748 17.646Q15.1297 17.8074 15.5276 17.8953Q16.0023 18 16.5 18L34.5 18Q34.9977 18 35.4724 17.8953Q35.8703 17.8074 36.252 17.646Q36.6361 17.4834 36.9785 17.2574Q37.3557 17.0083 37.6821 16.6821Q38.0083 16.3557 38.2574 15.9785Q38.4834 15.6361 38.646 15.252Q38.8074 14.8703 38.8953 14.4724Q39 13.9977 39 13.5Q39 13.0023 38.8953 12.5276Q38.8074 12.1297 38.646 11.748Q38.4834 11.3639 38.2574 11.0215Q38.0083 10.6443 37.6821 10.3179Q37.3557 9.99172 36.9785 9.74262Q36.6361 9.5166 36.252 9.354Q35.8703 9.19256 35.4724 9.10474ZM16.5 10L34.5 10C36.4331 10 38 11.5669 38 13.5C38 15.4331 36.4331 17 34.5 17L16.5 17C14.5669 17 13 15.4331 13 13.5C13 11.5669 14.5669 10 16.5 10ZM34.5 21L16.5 21Q16.0023 21 15.5276 21.1047Q15.1297 21.1926 14.748 21.354Q14.3639 21.5166 14.0215 21.7426Q13.6443 21.9917 13.3179 22.3179Q12.9917 22.6443 12.7426 23.0215Q12.5166 23.3639 12.354 23.748Q12.1926 24.1297 12.1047 24.5276Q12 25.0023 12 25.5Q12 25.9977 12.1047 26.4724Q12.1926 26.8703 12.354 27.252Q12.5166 27.6361 12.7426 27.9785Q12.9917 28.3557 13.3179 28.6821Q13.6443 29.0083 14.0215 29.2574Q14.3639 29.4834 14.748 29.646Q15.1297 29.8074 15.5276 29.8953Q16.0023 30 16.5 30L34.5 30Q34.9977 30 35.4724 29.8953Q35.8703 29.8074 36.252 29.646Q36.6361 29.4834 36.9785 29.2574Q37.3557 29.0083 37.6821 28.6821Q38.0083 28.3557 38.2574 27.9785Q38.4834 27.6361 38.646 27.252Q38.8074 26.8703 38.8953 26.4724Q39 25.9977 39 25.5Q39 25.0023 38.8953 24.5276Q38.8074 24.1297 38.646 23.748Q38.4834 23.3639 38.2574 23.0215Q38.0083 22.6443 37.6821 22.3179Q37.3557 21.9917 36.9785 21.7426Q36.6361 21.5166 36.252 21.354Q35.8703 21.1926 35.4724 21.1047Q34.9977 21 34.5 21ZM34.5 22L16.5 22C14.5669 22 13 23.5669 13 25.5C13 27.4331 14.5669 29 16.5 29L34.5 29C36.4331 29 38 27.4331 38 25.5C38 23.5669 36.4331 22 34.5 22ZM35.4724 33.1047Q34.9977 33 34.5 33L16.5 33Q16.0023 33 15.5276 33.1047Q15.1297 33.1926 14.748 33.354Q14.3639 33.5166 14.0215 33.7426Q13.6443 33.9917 13.3179 34.3179Q12.9917 34.6443 12.7426 35.0215Q12.5166 35.3639 12.354 35.748Q12.1926 36.1297 12.1047 36.5276Q12 37.0023 12 37.5Q12 37.9977 12.1047 38.4724Q12.1926 38.8703 12.354 39.252Q12.5166 39.6361 12.7426 39.9785Q12.9917 40.3557 13.3179 40.6821Q13.6443 41.0083 14.0215 41.2574Q14.3639 41.4834 14.748 41.646Q15.1297 41.8074 15.5276 41.8953Q16.0023 42 16.5 42L34.5 42Q34.9977 42 35.4724 41.8953Q35.8703 41.8074 36.252 41.646Q36.6361 41.4834 36.9785 41.2574Q37.3557 41.0083 37.6821 40.6821Q38.0083 40.3557 38.2574 39.9785Q38.4834 39.6361 38.646 39.252Q38.8074 38.8703 38.8953 38.4724Q39 37.9977 39 37.5Q39 37.0023 38.8953 36.5276Q38.8074 36.1297 38.646 35.748Q38.4834 35.3639 38.2574 35.0215Q38.0083 34.6443 37.6821 34.3179Q37.3557 33.9917 36.9785 33.7426Q36.6361 33.5166 36.252 33.354Q35.8703 33.1926 35.4724 33.1047ZM16.5 34L34.5 34C36.4331 34 38 35.5669 38 37.5C38 39.4331 36.4331 41 34.5 41L16.5 41C14.5669 41 13 39.4331 13 37.5C13 35.5669 14.5669 34 16.5 34Z" clip-rule="evenodd" fill="#00B3A8" fill-opacity="1.000000" fill-rule="evenodd"/>
	<rect id="бутерброд" x="13.000000" y="34.000000" rx="3.500000" width="25.000000" height="7.000000" fill="#00FFF0" fill-opacity="1.000000"/>
	<rect id="бутерброд" x="13.000000" y="10.000000" rx="3.500000" width="25.000000" height="7.000000" fill="#00FFF0" fill-opacity="1.000000"/>
</svg>
